HIERARCHY
ROOT Hips
{
	OFFSET 0.00000 0.00000 0.00000
	CHANNELS 6 Xposition Yposition Zposition Zrotation Yrotation Xrotation 
	JOINT LHipJoint
	{
		OFFSET 0 0 0
		CHANNELS 3 Zrotation Yrotation Xrotation
		JOINT LeftUpLeg
		{
			OFFSET 2.36090 -1.39315 1.24752
			CHANNELS 3 Zrotation Yrotation Xrotation
			JOINT LeftLeg
			{
				OFFSET 2.06810 -5.68207 0.00000
				CHANNELS 3 Zrotation Yrotation Xrotation
				JOINT LeftFoot
				{
					OFFSET 2.46631 -6.77613 0.00000
					CHANNELS 3 Zrotation Yrotation Xrotation
					JOINT LeftToeBase
					{
						OFFSET 0.26031 -0.71520 1.99545
						CHANNELS 3 Zrotation Yrotation Xrotation
						End Site
						{
							OFFSET 0.00000 -0.00000 1.05957
						}
					}
				}
			}
		}
	}
	JOINT RHipJoint
	{
		OFFSET 0 0 0
		CHANNELS 3 Zrotation Yrotation Xrotation
		JOINT RightUpLeg
		{
			OFFSET -2.25243 -1.39315 1.24752
			CHANNELS 3 Zrotation Yrotation Xrotation
			JOINT RightLeg
			{
				OFFSET -2.17343 -5.97145 0.00000
				CHANNELS 3 Zrotation Yrotation Xrotation
				JOINT RightFoot
				{
					OFFSET -2.52372 -6.93386 0.00000
					CHANNELS 3 Zrotation Yrotation Xrotation
					JOINT RightToeBase
					{
						OFFSET -0.22538 -0.61923 2.11447
						CHANNELS 3 Zrotation Yrotation Xrotation
						End Site
						{
							OFFSET -0.00000 -0.00000 1.10506
						}
					}
				}
			}
		}
	}
	JOINT LowerBack
	{
		OFFSET 0 0 0
		CHANNELS 3 Zrotation Yrotation Xrotation
		JOINT Spine
		{
			OFFSET 0.01594 2.13103 0.08007
			CHANNELS 3 Zrotation Yrotation Xrotation
			JOINT Spine1
			{
				OFFSET 0.01393 2.09723 0.18338
				CHANNELS 3 Zrotation Yrotation Xrotation
				JOINT Neck
				{
					OFFSET 0 0 0
					CHANNELS 3 Zrotation Yrotation Xrotation
					JOINT Neck1
					{
						OFFSET 0.05351 1.38915 0.32494
						CHANNELS 3 Zrotation Yrotation Xrotation
						JOINT Head
						{
							OFFSET 0.00711 1.45992 -0.21666
							CHANNELS 3 Zrotation Yrotation Xrotation
							End Site
							{
								OFFSET -0.00433 1.47702 -0.11056
							}
						}
					}
				}
				JOINT LeftShoulder
				{
					OFFSET 0 0 0
					CHANNELS 3 Zrotation Yrotation Xrotation
					JOINT LeftArm
					{
						OFFSET 2.87198 0.92249 0.11132
						CHANNELS 3 Zrotation Yrotation Xrotation
						JOINT LeftForeArm
						{
							OFFSET 5.52731 -0.00000 0.00000
							CHANNELS 3 Zrotation Yrotation Xrotation
							JOINT LeftHand
							{
								OFFSET 3.11059 -0.00000 0.00000
								CHANNELS 3 Zrotation Yrotation Xrotation
								JOINT LeftFingerBase
								{
									OFFSET 0 0 0
									CHANNELS 3 Zrotation Yrotation Xrotation
									JOINT LeftHandIndex1
									{
										OFFSET 0.41963 -0.00000 0.00000
										CHANNELS 3 Zrotation Yrotation Xrotation
										End Site
										{
											OFFSET 0.33831 -0.00000 0.00000
										}
									}
								}
								JOINT LThumb
								{
									OFFSET 0 0 0
									CHANNELS 3 Zrotation Yrotation Xrotation
									End Site
									{
										OFFSET 0.34348 -0.00000 0.34348
									}
								}
							}
						}
					}
				}
				JOINT RightShoulder
				{
					OFFSET 0 0 0
					CHANNELS 3 Zrotation Yrotation Xrotation
					JOINT RightArm
					{
						OFFSET -2.94710 0.68072 0.32187
						CHANNELS 3 Zrotation Yrotation Xrotation
						JOINT RightForeArm
						{
							OFFSET -5.25396 -0.00000 -0.00000
							CHANNELS 3 Zrotation Yrotation Xrotation
							JOINT RightHand
							{
								OFFSET -3.10567 -0.00000 0.00000
								CHANNELS 3 Zrotation Yrotation Xrotation
								JOINT RightFingerBase
								{
									OFFSET 0 0 0
									CHANNELS 3 Zrotation Yrotation Xrotation
									JOINT RightHandIndex1
									{
										OFFSET -0.49868 -0.00000 0.00000
										CHANNELS 3 Zrotation Yrotation Xrotation
										End Site
										{
											OFFSET -0.40204 -0.00000 0.00000
										}
									}
								}
								JOINT RThumb
								{
									OFFSET 0 0 0
									CHANNELS 3 Zrotation Yrotation Xrotation
									End Site
									{
										OFFSET -0.40818 -0.00000 0.40818
									}
								}
							}
						}
					}
				}
			}
		}
	}
}
MOTION
Frames: 7
Frame Time: .0083333
5.6724 16.0085 7.1361 -183.8010 -7.1738 -155.1130 0.0000 0.0000 0.0000 -15.7939 -23.3621 -67.1134 15.0898 19.4119 75.5071 0.0576 -5.0259 -5.1840 2.1865 -9.2442 -26.5623 0.0000 0.0000 0.0000 11.1602 26.4399 -39.2943 -4.5459 -12.8534 38.8222 -0.4488 -7.4261 -17.5008 -0.3384 3.7385 -10.3421 5.8709 1.9400 -9.5528 5.2441 1.2330 -2.7999 2.2893 0.3595 2.4719 4.0102 0.2623 -14.6666 -1.8740 -2.9511 33.6492 -2.1378 -1.9065 13.8015 0.0000 -0.0000 0.0000 -82.1386 11.3651 21.0504 24.1553 -35.3281 -7.7962 -0.0000 0.0000 -43.9553 23.4655 -4.4987 -1.9501 -7.1250 0.0000 -0.0000 -2.3944 25.0772 1.1548 0.0000 -0.0000 0.0000 77.2941 4.7790 15.1464 -23.2352 34.3450 -7.2705 0.0000 -0.0000 -10.6983 -16.0287 -17.1143 4.8324 7.1250 -0.0000 -0.0000 11.3699 -47.4160 -0.6863
5.6697 16.0059 7.0603 -183.8100 -6.7415 -155.2990 0.0000 0.0000 0.0000 -15.8995 -23.1182 -66.7514 14.2509 19.1884 72.9693 0.0551 -5.1091 -5.1562 2.2134 -9.2970 -26.7290 0.0000 0.0000 0.0000 11.2897 26.7645 -38.6363 -4.5291 -12.8330 38.7464 -0.4627 -7.5225 -17.7504 -0.3383 3.7375 -10.3394 5.6381 1.8967 -9.5728 5.0204 1.2335 -2.7296 2.1866 0.3764 2.5548 4.0206 0.4498 -14.6718 -1.7206 -2.7158 33.6235 -2.0408 -1.7802 13.8045 0.0000 0.0000 0.0000 -82.0408 11.0809 20.9123 24.6942 -35.8898 -8.1100 -0.0000 0.0000 -43.7370 24.0578 -4.9366 -2.2001 -7.1250 0.0000 -0.0000 -1.9539 24.5764 0.9648 0.0000 0.0000 0.0000 77.5972 4.7494 15.5921 -22.7442 33.8079 -6.9954 0.0000 -0.0000 -10.4417 -15.7131 -16.9950 4.7009 7.1250 -0.0000 -0.0000 11.6269 -47.2530 -0.6549
5.6662 16.0043 6.9830 -183.8100 -6.2913 -155.5020 0.0000 0.0000 0.0000 -16.0171 -22.8519 -66.2464 13.3833 18.9162 70.3118 0.0517 -5.2104 -5.1182 2.2364 -9.3420 -26.8713 0.0000 0.0000 0.0000 11.4461 27.0632 -37.9411 -4.5042 -12.8028 38.6346 -0.4784 -7.5778 -17.9807 -0.3393 3.7432 -10.3552 5.4017 1.8592 -9.5986 4.7960 1.2410 -2.6544 2.0866 0.3963 2.6459 4.0237 0.6427 -14.6778 -1.5651 -2.4710 33.5982 -1.9401 -1.6505 13.8078 0.0000 0.0000 0.0000 -81.9474 10.7844 20.7779 25.2181 -36.4261 -8.4191 -0.0000 0.0000 -43.5216 24.5414 -5.2715 -2.4022 -7.1250 0.0000 -0.0000 -1.5977 24.1884 0.8031 0.0000 0.0000 0.0000 77.8873 4.7124 16.0251 -22.2510 33.2596 -6.7230 0.0000 -0.0000 -10.1887 -15.3953 -16.8677 4.5681 7.1250 -0.0000 -0.0000 11.8827 -47.0823 -0.6190
5.6622 16.0036 6.9046 -183.7980 -5.8219 -155.7100 0.0000 0.0000 0.0000 -16.1267 -22.5782 -65.6243 12.4987 18.5936 67.5609 0.0476 -5.3377 -5.0753 2.2485 -9.3656 -26.9458 0.0000 0.0000 0.0000 11.6243 27.3369 -37.2243 -4.4706 -12.7616 38.4824 -0.4954 -7.5897 -18.1843 -0.3411 3.7528 -10.3824 5.1582 1.8241 -9.6396 4.5749 1.2496 -2.5837 1.9948 0.4157 2.7405 4.0393 0.8507 -14.6717 -1.4246 -2.2047 33.5812 -1.8443 -1.5127 13.8119 0.0000 0.0000 0.0000 -81.8656 10.4896 20.6336 25.7201 -36.9310 -8.7190 -0.0000 0.0000 -43.3132 24.9078 -5.5137 -2.5546 -7.1250 0.0000 -0.0000 -1.3298 23.9050 0.6771 0.0000 0.0000 0.0000 78.1608 4.6587 16.4667 -21.7608 32.7057 -6.4561 0.0000 -0.0000 -9.9350 -15.0732 -16.7781 4.4454 7.1250 -0.0000 -0.0000 12.1532 -46.9492 -0.5931
5.6579 16.0035 6.8256 -183.7680 -5.3407 -155.9100 0.0000 0.0000 0.0000 -16.2009 -22.3129 -64.9189 11.6105 18.2211 64.7487 0.0430 -5.4963 -5.0386 2.2512 -9.3708 -26.9622 0.0000 0.0000 0.0000 11.8253 27.5887 -36.5055 -4.4293 -12.7108 38.2953 -0.5141 -7.5597 -18.3675 -0.3431 3.7640 -10.4138 4.9135 1.7906 -9.6932 4.3561 1.2582 -2.5260 1.9065 0.4335 2.8286 4.0652 1.0744 -14.6468 -1.2870 -1.9187 33.5664 -1.7482 -1.3664 13.8130 0.0000 0.0000 0.0000 -81.7856 10.2014 20.4864 26.1995 -37.4051 -9.0086 -0.0000 0.0000 -43.1264 25.1387 -5.6779 -2.6581 -7.1250 0.0000 -0.0000 -1.1622 23.7125 0.5968 0.0000 0.0000 0.0000 78.4254 4.5888 16.9135 -21.2704 32.1426 -6.1932 0.0000 -0.0000 -9.6580 -14.7567 -16.7197 4.3335 7.1250 -0.0000 -0.0000 12.4273 -46.8489 -0.5756
5.6538 16.0039 6.7469 -183.7220 -4.8545 -156.0850 0.0000 0.0000 0.0000 -16.2152 -22.0767 -64.1698 10.7310 17.8009 61.9048 0.0380 -5.6797 -5.0118 2.2449 -9.3586 -26.9237 0.0000 0.0000 0.0000 12.0416 27.8132 -35.8128 -4.3819 -12.6519 38.0791 -0.5343 -7.4856 -18.5262 -0.3457 3.7781 -10.4531 4.6568 1.7538 -9.7659 4.1533 1.2591 -2.4918 1.8410 0.4449 2.9022 4.0772 1.3130 -14.5982 -1.1531 -1.6069 33.5549 -1.6472 -1.2123 13.8106 -0.0000 -0.0000 0.0000 -81.7287 9.9315 20.3390 26.6564 -37.8495 -9.2875 -0.0000 0.0000 -42.9697 25.2636 -5.7855 -2.7236 -7.1250 0.0000 -0.0000 -1.0724 23.5875 0.5538 -0.0000 -0.0000 0.0000 78.6597 4.4955 17.3769 -20.7869 31.5787 -5.9379 0.0000 -0.0000 -9.3562 -14.4497 -16.7100 4.2373 7.1250 -0.0000 -0.0000 12.7074 -46.7988 -0.5731
5.6497 16.0044 6.6685 -183.6510 -4.3579 -156.2310 0.0000 0.0000 0.0000 -16.1560 -21.8710 -63.3942 9.8724 17.3375 59.0611 0.0335 -5.8594 -4.9988 2.2352 -9.3397 -26.8638 0.0000 0.0000 0.0000 12.2762 28.0130 -35.1522 -4.3292 -12.5860 37.8378 -0.5571 -7.3598 -18.6686 -0.3482 3.7914 -10.4904 4.3934 1.7118 -9.8608 3.9646 1.2491 -2.4867 1.7930 0.4482 2.9574 4.0920 1.5737 -14.5134 -1.0208 -1.2666 33.5509 -1.5429 -1.0477 13.8038 0.0000 -0.0000 0.0000 -81.6868 9.6969 20.1848 27.0901 -38.2650 -9.5549 -0.0000 0.0000 -42.8380 25.2940 -5.8489 -2.7571 -7.1250 0.0000 -0.0000 -1.0515 23.5159 0.5447 0.0000 -0.0000 0.0000 78.8728 4.3695 17.8748 -20.3081 31.0118 -5.6892 0.0000 -0.0000 -9.0386 -14.1629 -16.7317 4.1552 7.1250 -0.0000 -0.0000 12.9783 -46.7827 -0.5805
